HIERARCHY
ROOT Hips
{
	OFFSET 52.394299 -6.044664 86.803101
	CHANNELS 6 Xposition Yposition Zposition Xrotation Yrotation Zrotation
	JOINT spine
	{
		OFFSET 0.000000 -0.393701 6.846367
		CHANNELS 3 Xrotation Yrotation Zrotation
		JOINT spine1
		{
			OFFSET 0.000000 -0.000001 9.496208
			CHANNELS 3 Xrotation Yrotation Zrotation
			JOINT spine2
			{
				OFFSET 0.000000 -0.000001 9.099091
				CHANNELS 3 Xrotation Yrotation Zrotation
				JOINT Neck
				{
					OFFSET 0.000000 -1.113784 23.361206
					CHANNELS 3 Xrotation Yrotation Zrotation
					JOINT Head
					{
						OFFSET 0.000000 -0.000001 7.058014
						CHANNELS 3 Xrotation Yrotation Zrotation
						End Site
						{
							OFFSET 0.000000 5.634188 17.084396
						}
					}
				}
				JOINT RightShoulder
				{
					OFFSET -3.831360 0.533489 9.826309
					CHANNELS 3 Xrotation Yrotation Zrotation
					JOINT RightArm
					{
						OFFSET 0.000000 -0.000002 12.888092
						CHANNELS 3 Xrotation Yrotation Zrotation
						JOINT RightArmRoll
						{
							OFFSET 0.000000 -0.000001 6.506165
							CHANNELS 3 Xrotation Yrotation Zrotation
							JOINT RightForeArm
							{
								OFFSET 0.000000 -0.000003 18.950104
								CHANNELS 3 Xrotation Yrotation Zrotation
								JOINT RightForeArmRoll
								{
									OFFSET 0.000000 -0.000001 7.300919
									CHANNELS 3 Xrotation Yrotation Zrotation
									JOINT RightHand
									{
										OFFSET 0.000000 -0.000002 14.651398
										CHANNELS 3 Xrotation Yrotation Zrotation
										End Site
										{
											OFFSET 0.000000 0.000000 0.100006
										}
									}
								}
							}
						}
					}
				}
				JOINT LeftShoulder
				{
					OFFSET 3.831360 0.533489 9.826309
					CHANNELS 3 Xrotation Yrotation Zrotation
					JOINT LeftArm
					{
						OFFSET 0.000000 -0.000002 12.888092
						CHANNELS 3 Xrotation Yrotation Zrotation
						JOINT LeftArmRoll
						{
							OFFSET 0.000000 -0.000001 6.506165
							CHANNELS 3 Xrotation Yrotation Zrotation
							JOINT LeftForeArm
							{
								OFFSET 0.000000 -0.000003 18.950104
								CHANNELS 3 Xrotation Yrotation Zrotation
								JOINT LeftForeArmRoll
								{
									OFFSET 0.000000 -0.000001 7.300919
									CHANNELS 3 Xrotation Yrotation Zrotation
									JOINT LeftHand
									{
										OFFSET 0.000000 -0.000002 14.651398
										CHANNELS 3 Xrotation Yrotation Zrotation
										End Site
										{
											OFFSET 0.000000 0.000000 0.100006
										}
									}
								}
							}
						}
					}
				}
			}
		}
	}
	JOINT RightUpLeg
	{
		OFFSET -6.068371 0.933477 -1.112778
		CHANNELS 3 Xrotation Yrotation Zrotation
		JOINT RightUpLegRoll
		{
			OFFSET 0.000000 -0.000003 17.179596
			CHANNELS 3 Xrotation Yrotation Zrotation
			JOINT RightLeg
			{
				OFFSET 0.000000 0.000003 -21.274300
				CHANNELS 3 Xrotation Yrotation Zrotation
				JOINT RightLegRoll
				{
					OFFSET 0.000000 -0.000003 21.343903
					CHANNELS 3 Xrotation Yrotation Zrotation
					JOINT RightFoot
					{
						OFFSET 0.000000 -0.000003 17.765198
						CHANNELS 3 Xrotation Yrotation Zrotation
						JOINT RightToeBase
						{
							OFFSET 0.000000 -0.000002 14.850792
							CHANNELS 3 Xrotation Yrotation Zrotation
							End Site
							{
								OFFSET 0.006294 0.829003 7.192123
							}
						}
					}
				}
			}
		}
	}
	JOINT LeftUpLeg
	{
		OFFSET 6.068371 0.933477 -1.112778
		CHANNELS 3 Xrotation Yrotation Zrotation
		JOINT LeftUpLegRoll
		{
			OFFSET 0.000000 -0.000003 17.179703
			CHANNELS 3 Xrotation Yrotation Zrotation
			JOINT LeftLeg
			{
				OFFSET 0.000000 -0.000003 21.274200
				CHANNELS 3 Xrotation Yrotation Zrotation
				JOINT LeftLegRoll
				{
					OFFSET 0.000000 -0.000004 21.541199
					CHANNELS 3 Xrotation Yrotation Zrotation
					JOINT LeftFoot
					{
						OFFSET 0.000000 -0.000003 17.567902
						CHANNELS 3 Xrotation Yrotation Zrotation
						JOINT LeftToeBase
						{
							OFFSET 0.000000 -0.000002 14.850800
							CHANNELS 3 Xrotation Yrotation Zrotation
							End Site
							{
								OFFSET -0.028210 0.829004 7.192123
							}
						}
					}
				}
			}
		}
	}
}
MOTION
Frames: 12
Frame Time: 0.041667
46.704399 -4.713016 86.403091 2.423575 -3.951384 10.839706 -0.096828 -1.824968 0.841572 3.838032 -3.641987 1.711894 5.484182 -3.621225 1.755441 1.079148 23.117831 9.626059 15.811133 -10.199439 7.856478 -1.459819 -33.622323 1.748843 140.255203 3.620220 81.290596 0.000019 0.000005 -0.000003 54.745633 -18.804803 12.931075 0.000017 -0.000000 -2.999979 -4.999567 -7.999089 -0.000345 -25.976625 70.221516 30.174936 84.030212 29.148211 -72.008758 -0.000004 -0.000002 0.000007 24.995639 30.720890 -8.363100 -0.000004 -0.000010 3.000002 -5.000430 8.000449 -0.000110 -20.528646 -176.654305 -0.568475 -179.999991 0.000005 -1.156004 154.093357 -4.933071 -1.302727 0.000002 0.000004 0.801831 72.419997 8.597050 -2.946299 25.456865 -7.355622 -0.000013 -15.172732 179.046429 2.104184 -0.000003 -0.000004 -0.799325 -19.544614 1.686679 1.148022 -0.000002 0.000004 -0.111776 70.160127 -5.161168 -6.682913 25.456957 7.355622 -0.000002 
46.699802 -4.712017 86.395401 2.456530 -3.943483 10.875345 -0.105204 -1.833847 0.841777 3.821405 -3.659887 1.711203 5.467569 -3.639135 1.754970 1.108030 23.025147 9.657667 15.802971 -10.120744 7.893338 -1.499054 -33.698640 1.683196 140.163432 3.452191 81.430834 0.000016 0.000004 -0.000003 54.686237 -18.723862 12.863171 0.000015 0.000002 -2.999982 -4.999568 -7.999088 -0.000345 -25.853664 70.156841 30.041030 84.040840 29.255845 -72.025322 0.000000 -0.000001 0.000008 25.097653 30.673157 -8.376524 -0.000005 -0.000010 2.999999 -5.000434 8.000447 -0.000109 -20.562886 -176.646628 -0.564301 -179.999991 0.000005 -1.156005 154.082852 -4.941642 -1.301989 0.000004 0.000004 0.801360 72.421179 8.596718 -2.946942 25.456861 -7.355623 -0.000013 -15.216521 179.029271 2.080909 -0.000004 -0.000004 -0.799274 -19.559773 1.710796 1.148764 -0.000001 0.000003 -0.110366 70.161622 -5.165482 -6.670097 25.456957 7.355622 -0.000004 
46.703403 -4.715606 86.397697 2.489604 -3.935382 10.910770 -0.113532 -1.842747 0.841834 3.804868 -3.677799 1.710173 5.451043 -3.657063 1.754148 1.135924 22.934556 9.690307 15.795369 -10.044336 7.931199 -1.536703 -33.773687 1.619737 140.074640 3.285521 81.571986 0.000018 0.000003 -0.000004 54.623516 -18.645529 12.796004 0.000017 0.000000 -2.999979 -4.999568 -7.999088 -0.000345 -25.733549 70.092610 29.910204 84.049760 29.361487 -72.040560 -0.000004 -0.000001 0.000008 25.198380 30.626664 -8.389579 -0.000004 -0.000009 2.999999 -5.000431 8.000447 -0.000106 -20.597337 -176.638008 -0.560669 -179.999991 0.000005 -1.157001 154.072484 -4.949319 -1.301803 0.000003 0.000004 0.800917 72.422299 8.596491 -2.947865 25.456861 -7.355620 -0.000013 -15.260413 179.011130 2.057823 -0.000003 -0.000005 -0.799198 -19.575035 1.734655 1.149560 -0.000001 0.000004 -0.108911 70.163173 -5.169604 -6.657849 25.456953 7.355622 -0.000004 
46.715202 -4.716117 86.397003 2.522749 -3.927131 10.946089 -0.121830 -1.851646 0.841778 3.788389 -3.695741 1.708907 5.434579 -3.675003 1.753094 1.163124 22.845473 9.723870 15.787972 -9.969552 7.969735 -1.573268 -33.847703 1.557769 139.988347 3.120201 81.715140 0.000018 0.000003 -0.000003 54.558591 -18.569000 12.729525 0.000017 0.000002 -2.999980 -4.999568 -7.999090 -0.000345 -25.615684 70.028727 29.781824 84.057485 29.465959 -72.054951 0.000000 0.000003 0.000006 25.298218 30.581066 -8.402355 -0.000008 -0.000009 2.999999 -5.000428 8.000446 -0.000112 -20.631973 -176.630359 -0.556818 -179.999991 0.000005 -1.157002 154.062170 -4.957897 -1.301052 0.000002 0.000003 0.800494 72.423426 8.596263 -2.948885 25.456863 -7.355622 -0.000013 -15.304403 178.993017 2.034708 -0.000004 -0.000003 -0.799105 -19.590501 1.758317 1.150392 -0.000001 0.000003 -0.107418 70.164874 -5.173503 -6.646054 25.456957 7.355619 -0.000004 
46.712505 -4.715475 86.394089 2.555939 -3.918779 10.981292 -0.130109 -1.860545 0.841662 3.771952 -3.713682 1.707491 5.418143 -3.692962 1.751900 1.189905 22.757290 9.757861 15.780964 -9.895710 8.008708 -1.609224 -33.921127 1.496621 139.903912 2.954609 81.859011 0.000016 0.000003 -0.000003 54.492421 -18.493381 12.663423 0.000017 0.000000 -2.999977 -4.999569 -7.999089 -0.000344 -25.499470 69.965056 29.655199 84.064534 29.569562 -72.068700 -0.000004 0.000003 0.000006 25.397423 30.536017 -8.414858 -0.000006 -0.000008 3.000003 -5.000431 8.000446 -0.000109 -20.666614 -176.622695 -0.553043 -179.999991 0.000005 -1.157000 154.051925 -4.967374 -1.301733 0.000003 0.000003 0.800078 72.424450 8.596077 -2.949993 25.456863 -7.355621 -0.000013 -15.348499 178.974903 2.011570 -0.000003 -0.000004 -0.799003 -19.605868 1.781871 1.151249 -0.000002 0.000004 -0.105909 70.166567 -5.177375 -6.634350 25.456955 7.355622 -0.000003 
46.719402 -4.715466 86.389702 2.589129 -3.910376 11.016487 -0.138386 -1.869454 0.841530 3.755513 -3.731622 1.706027 5.401720 -3.710925 1.750647 1.216549 22.669406 9.792069 15.773902 -9.822165 8.047786 -1.645084 -33.994347 1.435592 139.820994 2.789510 82.002329 0.000019 0.000003 -0.000003 54.426072 -18.418006 12.597600 0.000016 0.000001 -2.999978 -4.999568 -7.999091 -0.000343 -25.384111 69.901276 29.529452 84.071453 29.673019 -72.082333 -0.000003 0.000000 0.000008 25.496367 30.491146 -8.427145 -0.000007 -0.000010 3.000001 -5.000432 8.000446 -0.000108 -20.701255 -176.615032 -0.549290 -179.999991 0.000005 -1.157002 154.041721 -4.975952 -1.300966 0.000003 0.000003 0.799668 72.425598 8.595880 -2.951112 25.456861 -7.355622 -0.000013 -15.392598 178.956803 1.988442 -0.000005 -0.000005 -0.798898 -19.621339 1.805403 1.152125 -0.000001 0.000004 -0.104395 70.168255 -5.181212 -6.622745 25.456955 7.355622 -0.000004 
46.729309 -4.726196 86.390396 2.622294 -3.901962 11.051671 -0.146668 -1.878353 0.841423 3.739066 -3.749566 1.704624 5.385283 -3.728874 1.749462 1.243341 22.581119 9.826206 15.766838 -9.748128 8.086695 -1.681345 -34.067853 1.373991 139.738881 2.623342 82.145825 0.000018 0.000003 -0.000005 54.360605 -18.341923 12.531849 0.000018 0.000001 -2.999980 -4.999568 -7.999090 -0.000346 -25.269139 69.837346 29.404094 84.078802 29.776821 -72.096185 -0.000002 -0.000001 0.000006 25.595668 30.446043 -8.439404 -0.000007 -0.000009 3.000000 -5.000431 8.000444 -0.000107 -20.735792 -176.607382 -0.545501 -179.999991 0.000005 -1.157001 154.031407 -4.984524 -1.300225 0.000003 0.000003 0.799251 72.426643 8.595720 -2.952316 25.456861 -7.355623 -0.000013 -15.436701 178.937733 1.965618 -0.000003 -0.000004 -0.798798 -19.636714 1.828987 1.153005 -0.000001 0.000004 -0.102890 70.169955 -5.185076 -6.611040 25.456957 7.355621 -0.000005 
46.728603 -4.740407 86.389793 2.655375 -3.893587 11.087037 -0.154977 -1.887253 0.841391 3.722566 -3.767488 1.703382 5.368799 -3.746818 1.748433 1.270559 22.491820 9.859980 15.759444 -9.672852 8.125086 -1.718489 -34.141831 1.311114 139.657138 2.455310 82.288972 0.000018 0.000005 -0.000005 54.297152 -18.264344 12.466037 0.000017 0.000002 -2.999980 -4.999568 -7.999090 -0.000345 -25.153905 69.773073 29.278326 84.087142 29.881593 -72.110733 -0.000002 0.000000 0.000007 25.695351 30.400424 -8.451530 -0.000003 -0.000009 2.999998 -5.000433 8.000445 -0.000106 -20.770335 -176.599732 -0.541634 -179.999991 0.000005 -1.157998 154.021107 -4.993095 -1.300484 0.000003 0.000004 0.798821 72.427756 8.595499 -2.953240 25.456863 -7.355622 -0.000013 -15.480603 178.919647 1.942582 -0.000003 -0.000003 -0.798710 -19.652097 1.852705 1.153879 -0.000001 0.000004 -0.101409 70.171581 -5.189067 -6.599068 25.456957 7.355621 -0.000004 
46.730003 -4.736636 86.387199 2.688353 -3.885293 11.122494 -0.163322 -1.896142 0.841474 3.705996 -3.785401 1.702387 5.352243 -3.764743 1.747659 1.298488 22.400816 9.892999 15.751688 -9.595808 8.162757 -1.757051 -34.216871 1.246253 139.575175 2.286169 82.431429 0.000017 0.000003 -0.000003 54.236613 -18.184498 12.399782 0.000017 0.000000 -2.999982 -4.999569 -7.999090 -0.000346 -25.037638 69.708112 29.151360 84.096957 29.987833 -72.126210 -0.000004 0.000001 0.000006 25.796120 30.353832 -8.463739 -0.000006 -0.000010 2.999998 -5.000433 8.000446 -0.000110 -20.804799 -176.591153 -0.537988 -179.999991 0.000005 -1.157999 154.010684 -5.001660 -1.299760 0.000002 0.000003 0.798371 72.428863 8.595240 -2.954064 25.456860 -7.355621 -0.000013 -15.524508 178.901588 1.919621 -0.000003 -0.000004 -0.798641 -19.667383 1.876630 1.154737 -0.000001 0.000003 -0.099967 70.173145 -5.193217 -6.586720 25.456957 7.355620 -0.000003 
46.742405 -4.729576 86.382996 2.721192 -3.877126 11.158137 -0.171718 -1.905021 0.841717 3.689335 -3.803285 1.701754 5.335597 -3.782629 1.747232 1.327409 22.307599 9.924968 15.743550 -9.516170 8.199383 -1.797524 -34.293372 1.178698 139.492530 2.113624 82.571878 0.000019 0.000002 -0.000003 54.180158 -18.101634 12.333018 0.000018 0.000002 -2.999978 -4.999569 -7.999089 -0.000345 -24.920036 69.642521 29.022830 84.108896 30.096061 -72.143129 -0.000002 -0.000000 0.000006 25.898021 30.305997 -8.475899 -0.000006 -0.000010 3.000001 -5.000435 8.000447 -0.000112 -20.838962 -176.582574 -0.534145 -179.999991 0.000005 -1.157999 154.000111 -5.009318 -1.299614 0.000003 0.000003 0.797890 72.430051 8.594908 -2.954708 25.456863 -7.355622 -0.000013 -15.568211 178.884471 1.896489 -0.000003 -0.000004 -0.798600 -19.682577 1.900861 1.155573 -0.000001 0.000004 -0.098576 70.174668 -5.197597 -6.573717 25.456957 7.355623 -0.000003 
46.743309 -4.740944 86.384094 2.753849 -3.869150 11.193965 -0.180179 -1.913891 0.842168 3.672546 -3.821140 1.701568 5.318820 -3.800473 1.747265 1.357599 22.211470 9.955709 15.734572 -9.433311 8.234666 -1.840397 -34.371527 1.107749 139.408546 1.937686 82.710422 0.000018 0.000002 -0.000005 54.128744 -18.014853 12.265520 0.000016 0.000001 -2.999979 -4.999567 -7.999090 -0.000343 -24.800236 69.575872 28.891758 84.123438 30.206846 -72.161796 -0.000003 0.000001 0.000007 26.001728 30.256372 -8.488194 -0.000005 -0.000009 2.999999 -5.000434 8.000447 -0.000111 -20.872930 -176.573996 -0.530059 -179.999991 0.000005 -1.157998 153.989402 -5.017864 -1.299918 0.000003 0.000004 0.797371 72.431294 8.594475 -2.954869 25.456861 -7.355622 -0.000013 -15.611712 178.867368 1.873491 -0.000003 -0.000004 -0.798594 -19.697683 1.925465 1.156372 -0.000002 0.000004 -0.097254 70.175959 -5.202321 -6.559982 25.456953 7.355622 -0.000005 
46.714607 -4.748857 86.377197 2.786281 -3.861393 11.230184 -0.188719 -1.922730 0.842869 3.655613 -3.838948 1.701941 5.301902 -3.818281 1.747852 1.389310 22.111822 9.984857 15.724847 -9.346503 8.268335 -1.886221 -34.451911 1.032669 139.322759 1.757598 82.846479 0.000019 0.000001 -0.000004 54.083613 -17.923342 12.197058 0.000015 0.000000 -2.999981 -4.999567 -7.999091 -0.000346 -24.677824 69.508130 28.757712 84.141230 30.320709 -72.182730 -0.000001 0.000001 0.000006 26.107317 30.204852 -8.500577 -0.000010 -0.000009 2.999999 -5.000433 8.000446 -0.000109 -20.906514 -176.564474 -0.526029 -179.999991 0.000005 -1.157998 153.978419 -5.025502 -1.299811 0.000003 0.000003 0.796808 72.432619 8.593969 -2.954851 25.456863 -7.355620 -0.000013 -15.654812 178.851235 1.850358 -0.000004 -0.000005 -0.798630 -19.712495 1.950521 1.157117 -0.000001 0.000003 -0.096010 70.177134 -5.207363 -6.545409 25.456957 7.355623 -0.000006 
